<svg id="Layer_1" data-name="Layer 1" xmlns="http://www.w3.org/2000/svg" viewBox="0 0 383.28 382.78"><path d="M416.11,560.29c-1.88,2.84-4.41,3.87-7.89,3.81-11-.2-22-.06-32.93-.08-5,0-7.06-2.06-7.08-7,0-7.48,0-14.95,0-23h-4.13c-12.48,0-24.95,0-37.42,0-17.24,0-30.27-13.07-30.32-30.27,0-1.73,0-3.46,0-5.66-2.18,0-4.13,0-6.08,0a11.74,11.74,0,0,1-11.87-11.83c-.07-6-.05-12,0-18a11.76,11.76,0,0,1,12-12.12c1.73,0,3.46,0,5.85,0-6.37-9.46-7.59-19.17-3.48-29.66-18.36-.71-28.66-10.56-32.3-28.43-6.14,1.55-12,3-17.84,4.52q-56.16,14.4-112.32,28.83c-6.7,1.73-12.58-.15-18.06-3.74-8-5.24-13.77-12.57-18.86-20.49C79,385,70.44,360.34,65.17,334.59c-2.44-11.91-3.48-24.11-5-36.21a4.24,4.24,0,0,0-3-4c-11.16-4.7-18.38-12.93-21.43-24.71q-1.23-4.69-2.41-9.4c-1.45-5.74-.11-8.14,5.58-9.6q43-11.07,86-22.07c7.33-1.88,14.66-3.79,22.38-5.78-1.33-5.32-2.6-10.45-3.89-15.58-1.44-5.76-.18-8,5.62-9.53q21.84-5.68,43.7-11.24c4.73-1.2,7.23.29,8.57,5.12,1.45,5.26,2.8,10.54,4.3,16.23l22.49-5.73c24.09-6.16,48.07-12.74,72.27-18.38,47.94-11.16,95,17.66,107.45,65.29,1.41,5.42,2.84,10.83,4.19,16.26,1.11,4.48-.42,7.19-4.93,8.47-5.36,1.52-10.78,2.86-16.48,4.35,2.33,9.21,4.34,18.28,6.93,27.18A54.18,54.18,0,0,1,357.93,373c-1.31.32-2.62.71-4.4,1.19,5.13,16.9,1.39,30.73-14.76,40.37,6.15,5.2,10.23,11.59,11.27,19.5s-.74,15.06-5.68,22.12c2.38,0,4.19,0,6,0a11.74,11.74,0,0,1,11.84,11.87c.08,5.74.06,11.48.1,17.21a3.59,3.59,0,0,0,.26.75c4,0,8.23.28,12.39-.09,3.53-.32,5.22-3,5.23-7.43q0-23.4,0-46.79c0-11.35,0-22.7,0-34.06,0-5.42,2-7.34,7.47-7.35,6.86,0,13.72.17,20.58-.07,3.48-.13,6,1,7.88,3.81ZM46.25,261.39c.38,1.69.6,2.91.91,4.1,3.93,14.92,16.13,22.23,31.1,18.4q58.71-15,117.37-30.22c8.46-2.21,16.73-2.65,24.9.68,11.22,4.56,18.36,12.84,21.84,24.44,4.12,13.67,15.71,20.41,29.55,17.16,8.23-1.93,16.38-4.19,24.57-6.3,5.29-1.36,10.56-2.85,15.9-4,3.83-.86,6.88.92,7.74,4.09.92,3.41-1,6.45-4.77,7.68-.71.23-1.43.42-2.16.61-12.64,3.24-25.21,6.83-38,9.55a43.3,43.3,0,0,1-17,.51c-14-2.73-23.18-11.49-27.36-25.17-1.88-6.19-5-11.36-10.44-15-9.31-6.15-18.68-3.71-28.19-.54a5.72,5.72,0,0,0,.24,1.29c11.32,24.91,18.6,51,20.9,78.21,1,11.73.34,23.63-.17,35.42-.23,5.33-2,10.59-3,16,.72-.14,1.33-.22,1.92-.38,48-12.31,96.11-24.54,144.11-37,13.34-3.47,22.76-12,28.11-24.75,4.29-10.27,3.62-20.6.53-31.07-2.3-7.83-4.08-15.81-6.11-23.78-1.17.22-1.89.34-2.6.5-5.87,1.34-9.07.11-10.06-3.86-.95-3.81,1.57-6.58,7.29-8,.12,0,.25,0,.37-.06l25.11-6.46c-1-4.09-2-7.93-3-11.74-11-41-51.65-65.83-92.62-56-28.16,6.73-56.14,14.21-84.19,21.4q-66.81,17.11-133.61,34.27C72.51,254.57,59.53,258,46.25,261.39Zm82.24,22.14a10.25,10.25,0,0,0,.44,2,250,250,0,0,1,20.28,72.24c1.72,13.5,2.57,27.06.49,40.61-.82,5.31-2,10.57-3,16.15,1.22-.23,2.19-.36,3.12-.6,12.4-3.15,24.75-6.54,37.22-9.39,6.08-1.38,9.37-5,11.39-10.5,3.09-8.44,4-17.23,4.05-26.07.16-29.11-6.12-57-16.63-84-1.79-4.58-3.87-9-5.85-13.6ZM392.15,402.37v4.36q0,36.3,0,72.59c0,11.25-7.5,18.8-18.68,18.81q-30.49,0-61,0h-3.91c-1.41,15.8,5.94,24,21.09,24h74.19V402.37Zm-319.54-105a45.52,45.52,0,0,0,0,5.87c1.11,8.38,2,16.82,3.6,25.12,4.49,23.2,11.73,45.5,23.46,66.14,4.88,8.59,10.35,16.83,18.56,22.69,6.67,4.77,11.39,3.47,15-3.93,3.52-7.18,4.63-15,5.06-22.8,1-18.16-1.15-36.05-5.16-53.74a228.82,228.82,0,0,0-15.74-46.93c-.51-1.1-2-2.67-2.83-2.55a99.09,99.09,0,0,0-10.12,2.59,227,227,0,0,1,20,63.92c2.14,13.19,3.37,26.49,1.67,39.82-.26,2-2.25,4.48-4.12,5.51-2.4,1.31-5.13.28-6.85-2.19-1.08-1.53-2.14-3.07-3.1-4.67-14.13-23.36-21.65-49-26-75.72-1.14-7-1.64-14-2.46-21.21Zm269.65,79.72-70.05,18c.52,2,.91,3.65,1.39,5.31,2.91,10.16,11.46,15.56,21.72,13.18,12-2.79,23.9-5.82,35.73-9.17a16.23,16.23,0,0,0,12.23-14.15C343.8,386.17,342.7,381.92,342.26,377.05ZM290.5,485.9h59.42V468.39H290.5ZM320,456.19a18,18,0,1,0-17.72-18.1A18.27,18.27,0,0,0,320,456.19Zm60.36,78v17.64h23.43V534.15ZM159.19,219.81l34.57-8.9c-1-3.91-2-7.57-3-11.42l-34.55,8.92ZM96.9,302.86a199.78,199.78,0,0,0,16.55,64.48A196.25,196.25,0,0,0,96.9,302.86Z" transform="translate(-32.83 -181.32)"/><path d="M337.28,291.87c-1.53-1.59-3.85-3.07-4.74-5.16a5,5,0,0,1,3-6.8,89.22,89.22,0,0,1,14.38-3.77c2.78-.49,5.11,1.3,6,4.08s.15,5.9-2.71,7C348.37,289.05,343.25,290.17,337.28,291.87Z" transform="translate(-32.83 -181.32)"/><path d="M326.26,438.37c-.06,3.48-2.43,6-5.46,5.85-2.87-.15-4.95-2.75-4.89-6.12s2.4-6,5.45-5.84C324.23,432.42,326.31,435,326.26,438.37Z" transform="translate(-32.83 -181.32)"/></svg>