<svg id="Layer_1" data-name="Layer 1" xmlns="http://www.w3.org/2000/svg" viewBox="0 0 383.31 383.32"><path d="M537.87,628.81c-1.93,3.88-5,5.31-9.38,5.3q-73.56-.17-147.1-.07c-5.67,0-8.85-2.59-9-7.24a7.31,7.31,0,0,1,7-7.7c1.12-.07,2.24,0,3.37,0H522c-1-48-45.17-94.31-96-94.83-1.48,3.12-2.49,6.17-4.22,8.74-10.55,15.73-21.25,31.36-31.92,47-4.78,7-9,7.38-15.08,1.34L349,555.68c-.87-.86-1.78-1.68-3-2.86-2.62,2.68-5.1,5.26-7.63,7.79-7.32,7.34-14.61,14.69-22,22-4.49,4.43-9.35,4-12.91-1.21q-17.21-25.14-34.25-50.4c-1.25-1.85-1.62-4.28-2.46-6.6-47.35-.28-94.77,43.25-96.37,94.72h141c5.28,0,8.46,2.73,8.56,7.26a7.33,7.33,0,0,1-7,7.67c-.87.06-1.74,0-2.62,0h-146c-7.52,0-9.84-2.31-9.81-9.76.25-53.39,39.27-101.07,92.32-113,14.76-3.31,29.72-3.07,44.66-2.82,5.62.09,9.88-3.06,14.7-4.88.55-.21,1-1.39,1-2.14.1-3.61.17-7.24,0-10.84a4.19,4.19,0,0,0-1.79-2.84A80.76,80.76,0,0,1,271.7,449c-.92-2.21-2.33-2.21-4.11-2.15-8.79.27-17.41-.4-25.55-4.22-30.48-14.28-34.86-55.37-8-75.57a6.34,6.34,0,0,0,2.93-5.78c.06-51,32.23-93.29,81.27-106.8,5.72-1.57,11.63-2.44,17.44-3.64h21c3.27.6,6.56,1.13,9.82,1.79,52.41,10.52,88.84,54.82,88.91,108.21a7,7,0,0,0,3.14,6.44c25,18.84,22.9,56.78-3.84,73-9.23,5.61-19.32,7-29.82,6.49-2.27-.11-3.55.48-4.5,2.76-6.76,16.15-17.85,28.61-32.69,37.84-1.1.68-2.46,2.06-2.49,3.15-.1,4.3.28,8.61.5,12.91,0,.07.19.17.3.21,4.77,1.59,9.45,4.14,14.33,4.58,13.49,1.23,27.38,0,40.55,2.56,47,9.21,77.67,37.61,92.31,83.11,2.3,7.15,3.14,14.78,4.66,22.19Zm-257.14-248c0,7.25-.12,14.09,0,20.93.19,9.08-.37,18.31,1.06,27.21,7.8,48.68,65.06,71.18,104.17,41.19a58.88,58.88,0,0,0,15.06-16.51c-8.74,0-16.93.07-25.11,0a4,4,0,0,0-4.28,2.56c-4.16,8.09-10.87,12.4-20.09,12.49-3.5,0-7,.05-10.48,0-11-.19-20.48-8.41-21.83-18.82-1.53-11.87,4.94-22.53,16.12-25.2,4.86-1.17,10.12-.79,15.21-.93,9.85-.27,16.81,4.31,21.48,12.85a4.58,4.58,0,0,0,3.27,2q15.33.24,30.68,0a3.93,3.93,0,0,0,3-2.24c1-4.33,2.2-8.75,2.34-13.17.37-12.46.16-24.93.42-37.4.06-2.9-1.25-3.6-3.61-3.93a96.29,96.29,0,0,1-40.42-15.44c-2-1.35-3.4-1.48-5.56-.1-20.54,13.07-42.93,18.73-67.24,16.29C290.36,382.14,285.82,381.46,280.73,380.82ZM411.36,367c0-4,.12-7.5,0-11a47.33,47.33,0,0,0-1-7.39c-7.05-33.92-37.06-55.87-71.53-52.36-33.09,3.37-59,32.95-57.9,66,.07,1.91.53,2.74,2.59,3.22a92.37,92.37,0,0,0,38.18.94A89.92,89.92,0,0,0,359.31,350c4.24-3.13,6.79-3.12,10.88-.29,2.77,1.91,5.45,4,8.32,5.7A83.9,83.9,0,0,0,411.36,367Zm28.55-8.42c.76-25.3-12.23-59.92-45.33-79.18s-66.67-18.85-99,1.5c-28.1,17.69-41.93,44.22-43.57,77.7l13.7-.89C267,337,274.61,319,289.32,304.33a78.21,78.21,0,0,1,53.37-23.54,77.35,77.35,0,0,1,51.11,15.56c20.48,15.28,31.15,36,32.94,61.4Zm-174.64,15c-13.8-1.19-24.65,4.29-30.44,15.09a29.31,29.31,0,0,0,3,31.89c7.13,8.63,16.36,11.86,27.43,10.62Zm161.91,0v57.74c12.21,1.07,22.18-2.66,28.88-12.88s6.86-21,.43-31.37C449.87,376.39,439.79,372.33,427.18,373.55ZM335,542a3.88,3.88,0,0,0-.46-.74c-4.57-4.59-9.12-9.2-13.73-13.74-3.18-3.14-6.1-8.08-9.76-8.74s-8.11,3-12.2,4.78-8.26,3.72-12.58,5.67l24.91,36.59Zm46.21,23.72c8.12-12,16.35-24.06,24.83-36.53L381.9,518.41l-24,24C365.42,549.9,373.24,557.73,381.2,565.69ZM322.45,495.3c0,2.78.19,5,0,7.23-.39,3.64.84,6.3,3.57,8.81,5.22,4.81,10.1,10,15.13,15,1.64,1.63,3.32,3.22,5.09,4.94,7.73-7.74,15.15-15.13,22.51-22.56a3.8,3.8,0,0,0,1.18-2.21c.12-3.57.05-7.15.05-11.2A83.88,83.88,0,0,1,322.45,495.3Zm23.79-41.66c1.86,0,3.74.12,5.59,0a7.5,7.5,0,0,0,7.13-7.24,7.42,7.42,0,0,0-7.1-7.63,93,93,0,0,0-10.43,0,7.46,7.46,0,0,0,0,14.91C343,453.74,344.63,453.64,346.24,453.64Z" transform="translate(-154.55 -250.79)"/><path d="M346.18,634a7.48,7.48,0,1,1,7.5-7.56A7.34,7.34,0,0,1,346.18,634Z" transform="translate(-154.55 -250.79)"/></svg>