<svg id="Layer_1" data-name="Layer 1" xmlns="http://www.w3.org/2000/svg" viewBox="0 0 347.14 275.69"><path d="M396.83,337.85c3.07,0,5.67,0,8.27,0a21.52,21.52,0,0,1,21.67,21.53q.08,32.37,0,64.73a21.52,21.52,0,0,1-21.69,21.51c-2.24,0-4.49,0-6.74,0-9.45,0-10.47-.29-18.48-5.35-4.73,5-10.9,5.44-17.44,5.41q-46.59-.21-93.17,0c-6.43,0-12.46-.51-17.17-5.55-9.32,7.66-20,6.35-30.24,4.67s-16.6-10.7-16.6-21.05q0-85.49,0-171v-4.69H162.61c2.38-26.05,4.72-51.75,7.09-77.67h83l7.1,77.46H217.42V339l17.74-1.65v-3.63c0-11-.06-22,0-32.93.17-22,18.83-40.68,40.92-40.76q39.86-.16,79.7,0c22.3.08,40.88,18.73,41,41.05C396.9,313.15,396.83,325.24,396.83,337.85Zm-24,23.66c-.17-9.53,3.3-16.33,10.89-21,.76-.46,1.13-2.09,1.14-3.18.08-11.59.16-23.18,0-34.77-.19-17.66-13.15-30.52-30.9-30.59Q316,271.85,278,272c-17.88.08-30.76,13.07-30.88,31-.08,11.35,0,22.69-.07,34a4.49,4.49,0,0,0,2.46,4.45,19.26,19.26,0,0,1,8.87,12.4c.54,2.3.74,4.69,1.15,7.38,6.54-4.66,13.6-5.57,21.12-5.5q35.16.3,70.31,0C358.62,355.67,365.83,356.47,372.79,361.51Zm-192-179.2L176,235.77h70.42c-1.62-18-3.22-35.65-4.82-53.46Zm78.3,221.55c0,7.29,0,14.25,0,21.22,0,6.67,1.95,8.58,8.76,8.58H364a19.81,19.81,0,0,0,3.36-.1c3-.5,5.27-2.33,5.36-5.37.25-8.06.08-16.12.08-24.33Zm.11-12.38H372.69c1.21-15.64-6.22-23.7-21.59-23.7-23.93,0-47.85-.12-71.78.13A25,25,0,0,0,268,370.72C259.93,375.12,258.67,382.92,259.22,391.48Zm155.59.23c0-10.09,0-20.18,0-30.28,0-7.67-3.86-11.54-11.44-11.61-2.49,0-5,0-7.48,0-6.65.06-10.93,3.92-11,10.55q-.19,31.58,0,63.17c0,6,4.18,9.86,10.27,10.1,2.61.1,5.23,0,7.85,0,7.9-.05,11.74-3.83,11.77-11.67C414.84,411.9,414.81,401.81,414.81,391.71Zm-197.62-.08c0,10.35-.05,20.71,0,31.06,0,6.93,4,10.83,11,11,2.87.05,5.74.09,8.6,0,6.12-.23,10.26-4.05,10.3-10.09q.19-31.62,0-63.25c-.05-6.3-3.84-9.74-10.09-10.05-2.49-.12-5-.28-7.48-.36-8.32-.26-12.29,3.54-12.31,11.8C217.17,371.67,217.19,381.65,217.19,391.63Z" transform="translate(-79.67 -170.41)"/><path d="M166,301.78l5.27.27c-4,13.91-7.88,27.6-11.91,41.71H193V445.32H181.37V415.9H91.62v29.48h-12V344h33.7c-4.06-14.26-8-28-12-42l5.87-.26c-11.65-11.58-17.06-25.16-15.67-41.51a49.06,49.06,0,0,1,27.26,4.55,51.25,51.25,0,0,1,17.46-28.12,49.85,49.85,0,0,1,17.49,28.22,50.13,50.13,0,0,1,26.92-4.73C182.69,271.5,179.8,287.66,166,301.78ZM91.61,403.46H181V356H91.61ZM155.19,314H117.52l8.44,29.7H146.5a12.59,12.59,0,0,0,.75-1.73C149.86,332.83,152.46,323.66,155.19,314Zm-19-19.27c8.37-9.71,8.33-30.37.12-39.52C128.32,264.49,128.18,283.46,136.21,294.76Zm32.14-22.24c-1.4.36-2.48.61-3.54.92-6,1.74-10.86,4.06-11.2,11.67-.19,4.13-2.29,8.16-3.55,12.28C158.87,294.26,168.07,282,168.35,272.52Zm-64.15-.7c.63,9.43,10.17,23.26,18,25.14-1.32-5.6-2.66-11.43-4.11-17.24a3.82,3.82,0,0,0-1.57-2.35C112.71,275.5,108.77,273.85,104.2,271.82Z" transform="translate(-79.67 -170.41)"/><path d="M121.56,385.48V374H151v11.51Z" transform="translate(-79.67 -170.41)"/></svg>