<svg id="Layer_1" data-name="Layer 1" xmlns="http://www.w3.org/2000/svg" viewBox="0 0 356.75 356.48"><path d="M151.8,311.51c-2.71,0-4.83.08-6.93,0-3.46-.17-5.69-2.16-5.72-5.63q-.17-20.4,0-40.79c0-3.83,2.3-5.85,6.25-5.9,5.83-.08,11.66,0,17.91,0-1.35-18.12,5.58-30.5,23.93-35.71V206.25c0-7.28,1.36-8.77,8.9-9.35.51-8,1-16,1.55-24.08.16-2.61.24-5.23.55-7.83.42-3.51,2.64-5.33,6.08-5.35,11-.07,22-.09,32.94,0,3.81,0,5.83,2.16,6.1,6.11.54,8.08,1,16.18,1.49,24.26.14,2.23.39,4.45.59,6.6,8.32,1.61,8.92,2.36,8.92,10.85v15.92c18,4.94,25.15,17.38,24,35.51h12.1V236.5c0-1.87,0-3.74,0-5.61.1-4.21,2-6.18,6.09-6.42,1.59-.09,3.2,0,5.07,0V211H285.73c-7.75,0-9.53-2-8.85-9.7,2.37-27.27,23.66-46.92,51.09-47,19.72-.07,39.43,0,59.15,0,5.83,0,7.57,1.71,7.6,7.53q0,12,0,24c0,5.16-2.06,7.15-7.31,7.26-4.86.09-9.74-.07-14.59.16-4.3.21-5,1.34-4.17,5.45,1.77,8.89,7.68,13.94,15.74,17,1.86.69,3.83,1.08,5.72,1.67,3.54,1.1,5.17,3.75,4.44,7.11-.65,3-3.36,4.82-6.87,4.15-10.4-2-19.29-6.57-25.46-15.53-.7-1-1.36-2-1.83-2.75l-11.07,1.15v12.73c1,.1,2.1.25,3.16.32,4.74.32,6.74,2.3,6.78,7.07.06,7.73,0,15.47,0,23.2v4.44h26.42c1.5,0,3,0,4.5,0,3.94.14,6.38,2.28,6.42,6.26q.18,19.83,0,39.67c0,4.21-2.44,6.32-6.63,6.42-1.85,0-3.7,0-5.84,0-.08,1.46-.2,2.66-.2,3.86,0,26.45,0,52.9-.06,79.35,0,2.48.53,4.22,2.79,5.53A69,69,0,0,1,393.4,405c3.33,2.51,4.07,5.49,2.18,8.37s-5.36,3.39-8.83,1.2c-.72-.44-1.41-.92-2.52-1.65v17.31c1.09-.78,2-1.38,2.81-2a36.32,36.32,0,0,1,48,3.74c2,2,3.41,2.21,6,1.28a25.35,25.35,0,0,1,32.26,15.31c1,2.57,2.15,3.53,4.81,3.32a26.89,26.89,0,0,1,6.33.33,13,13,0,0,1,11.13,13q.11,15.9,0,31.81c0,8-5.6,13.66-13.65,13.68-20.09.06-40.18,0-60.27,0q-116.25,0-232.48,0c-18.84,0-33.22-11.56-36.83-29.65a49.64,49.64,0,0,1-.59-9.69q0-77.48,0-154.95Zm106.76,110a16,16,0,0,1-16.08-4.05c-4.65-4.33-5.19-10.14-5.16-16-13.21,1.66-20.92-5.25-20.92-18.26q0-33.67,0-67.36v-4.06H163.5c-.06,1.4-.17,2.62-.17,3.84q0,78.21,0,156.43c0,17,10.2,27.17,27.31,27.19q63.26,0,126.52,0h4.16c0-10.93,0-21.27,0-31.61s5.36-15.74,15.62-15.77,20.71,0,31.06,0c1.31,0,2.62-.12,4.13-.2,0-15.5.05-30.58-.1-45.66,0-1.15-1.23-2.62-2.3-3.38q-26.91-19.24-53.95-38.34c-.84-.59-1.76-1.06-3.07-1.84v4.71c0,12.47.07,25,0,37.42-.07,9.22-5,15.56-13.45,17.24-2.47.49-5.12.08-7.7.08-3.73,9.65-8.92,14-16.66,13.91S261.74,431,258.56,421.48ZM228.34,271.11c-.06,1.28-.14,2.14-.14,3q0,54.83,0,109.66a16.78,16.78,0,0,0,.08,2.24,4.58,4.58,0,0,0,9.09.1,23.5,23.5,0,0,0,.08-3.36c0-12,0-23.95,0-35.93,0-4.19,2.39-6.79,5.87-6.8s5.8,2.56,5.92,6.73c0,.87,0,1.75,0,2.62v53.89a19.83,19.83,0,0,0,.06,3c.4,2.54,1.88,4.06,4.51,4.12a4.19,4.19,0,0,0,4.61-3.93,28.15,28.15,0,0,0,.16-4.11q0-26.76,0-53.52a18.39,18.39,0,0,1,.39-4.45,5.25,5.25,0,0,1,5.75-4.3c3.11.17,5,2,5.47,5.12a22.91,22.91,0,0,1,0,3q0,34.07,0,68.12c0,1.24-.39,2.82.22,3.66,1.12,1.54,2.65,3.31,4.35,3.79,2.49.7,4.22-1.11,4.77-3.6a18.56,18.56,0,0,0,.26-4.09q0-33.49,0-67c0-1.25,0-2.5.08-3.74a5.68,5.68,0,0,1,11.34,0,33.3,33.3,0,0,1,.1,3.74q0,26.76,0,53.52c0,1.36-.32,3.07.36,4,1.09,1.53,2.73,3.23,4.43,3.62,2.53.59,4.09-1.41,4.66-3.82a15,15,0,0,0,.1-3.36V350.28c0-6.36-.07-12.72,0-19.09.07-5,3.8-7.4,8.4-5.64.61.24,1.23.45,1.8.65V271.11ZM408.65,463.49c-23.71,0-47.42.07-71.13-.07-3.47,0-4.54,1-4.46,4.49.22,9,.2,18,0,26.95-.07,3.25.95,4.38,4.23,4.37q71.31-.11,142.63,0c3.09,0,4.13-1.05,4.07-4.13-.15-9-.18-18,0-26.94.08-3.5-.88-4.77-4.61-4.75C455.82,463.57,432.23,463.49,408.65,463.49Zm-93.57-114.1,56.85,40.32v-78H323.3c0,7.14-.09,14.08,0,21S321.31,345.2,315.08,349.39Zm-26-150.15c20.21,0,40.14,0,60.07-.1a4,4,0,0,0,2.69-2.22,25.06,25.06,0,0,1,10.09-12.14c.83-.52,1.85-1.57,1.88-2.4.17-5.42.08-10.85.08-16.39-13.08,0-25.65-.06-38.21,0a35.67,35.67,0,0,0-7.75,1C303,170.56,290.16,184.77,289.08,199.24ZM266.57,259c0-1.78-.13-3.26,0-4.72,1-10.09-6.65-19.8-19.41-19.41-17.7.53-35.42.11-53.13.16a24.52,24.52,0,0,0-6.64.64c-9.7,2.74-14.43,12.14-11.82,23.33ZM150.8,299.48h65.41V271.22H150.8ZM384.67,271.2H323.5v28.34h61.17Zm-82.43-12.31h44.89V236.15H302.24ZM461.66,451.57c-3.69-8.32-13.32-10.6-21.11-5.2-4.6,3.18-7.07,2.71-10.2-1.92-5.9-8.75-14.15-12.6-24.64-11.66-9.79.89-19.68,9.87-20.59,18.78ZM199.37,209.07v13.86h42.92V209.07Zm8.55-12.24h25.71c-.55-8.55-1.07-16.82-1.61-25.23H209.46C209,180,208.45,188.3,207.92,196.83Zm105.94,27.3H337.3V211.22H313.86Zm69.12-43V166.06h-7v15.05Z" transform="translate(-139.06 -154.24)"/><path d="M495.81,260.91a40.26,40.26,0,1,1-40.06-40.28A40.07,40.07,0,0,1,495.81,260.91Zm-69-.11c-.11,15.51,12.7,28.5,28.42,28.82s28.9-12.8,29-28.57c.12-15.51-12.78-28.6-28.4-28.83S427,245.08,426.84,260.8Z" transform="translate(-139.06 -154.24)"/><path d="M429.57,324.28a20.54,20.54,0,0,1-.07,41.07,20.54,20.54,0,1,1,.07-41.07Zm8.58,20.66a8.72,8.72,0,0,0-17.44-.33,8.72,8.72,0,1,0,17.44.33Z" transform="translate(-139.06 -154.24)"/><path d="M456.46,239.74c10.45.16,20,9.63,20.33,20.24.12,3.61-2,6.3-5.18,6.63-3.56.36-6-1.74-6.58-5.57-.89-6.31-3.11-8.54-9.48-9.52-3.92-.6-6-3-5.64-6.55C450.2,241.73,452.77,239.68,456.46,239.74Z" transform="translate(-139.06 -154.24)"/></svg>