<svg id="Layer_1" data-name="Layer 1" xmlns="http://www.w3.org/2000/svg" viewBox="0 0 383.23 381.76"><path d="M59.19,500.71c1.26-6.82,2.57-13.63,3.76-20.46,1.89-10.91,3.12-22,5.7-32.7C72.34,432.19,82.2,421.66,97,416.24q48.69-17.79,97.54-35.17c2.73-1,3.36-2.29,3.57-5,.51-6.69-1.2-11.52-6.57-16.44-13-12-19.16-28-22.15-45.11-1.56-8.9-1.77-18.06-2.31-27.12a28.93,28.93,0,0,0-5.88-16.62c-6.5-8.32-9.3-17.73-9.1-28.18.25-12.71-.22-25.47.72-38.13C154.8,178.05,176,154.49,202,149a73,73,0,0,1,14.44-1.54c28.56-.14,57.12-.1,85.69,0,14.22,0,24.18,10.29,24,24.4a3.68,3.68,0,0,0,1.74,2.65c11.47,6,18.17,15.58,21.11,28a20.94,20.94,0,0,1,.61,4.78c.05,15.1.3,30.2-.14,45.28a30.64,30.64,0,0,1-3.58,13.84c-7.3,12.8-10.9,26.5-12.85,41-2.48,18.42-8.51,35.55-21.21,49.72a6.1,6.1,0,0,1-1.29,1.34c-8,4.34-7.38,11.83-6.78,19.15a4.78,4.78,0,0,0,2.73,3.16c24.4,8.91,48.84,17.67,73.27,26.49,8.65,3.12,17.36,6.09,25.9,9.5,16.45,6.57,25.71,19,28.54,36.33,2.57,15.71,5,31.44,7.8,47.12s-7.9,29-23.91,29H84.3c-12.48,0-20.4-5.82-24.44-17.9-.1-.31-.44-.53-.67-.8ZM180.45,272.05l-1,.08c1.07,14,1.3,28.14,3.44,42,2.24,14.47,7.89,28.15,19.5,37.75,9.45,7.81,19.94,14.44,30.32,21,8.24,5.23,17.56,6,26.94,3.54,4-1.05,8.37-2.23,11.69-4.58,10.12-7.2,20.71-14.1,29.48-22.78,14.64-14.5,19.22-33.75,20.19-53.63.78-16.3.17-32.68.14-49a17.08,17.08,0,0,0-.44-4c-2.45-9.52-8.53-15.87-17.61-19.24-9.75-3.63-19.58-7-29.44-10.38a14.19,14.19,0,0,0-6.54-1,61.8,61.8,0,0,0-13.2,3.38c-11.2,4.58-22.6,7.36-34.8,6.37-4.22-.34-8.5.23-12.72-.1-13.35-1.05-26.32,13.41-26,25.91C180.62,255.58,180.45,263.82,180.45,272.05ZM267.9,515.87c2,.09,3.06.19,4.14.19q72,0,144.08,0c10.37,0,14.47-5,12.73-15.25-2.51-14.84-5.05-29.67-7.36-44.55-2.18-14.07-9.48-23.64-23.17-28.37C384.1,423,370,417.62,355.89,412.49c-6.62-2.39-13.25-4.72-20.05-7.14,0,.69-.08.94,0,1.12,4.19,8.47,8.41,16.93,12.59,25.41,3.12,6.34.36,11-6.65,11.1-4.66.07-9.33,0-14.57,0,1.24,2.43,2.12,4.19,3,5.93,3,5.75,2.71,7.34-2,11.69Q301.57,485,274.93,509.35C272.77,511.32,270.64,513.33,267.9,515.87ZM166.25,405.65a8.6,8.6,0,0,0-1.73.12c-21.39,7.72-42.86,15.25-64.13,23.3-10.92,4.13-17.52,12.47-19.54,24.08C78.07,469.08,75.45,485,72.77,501c-1.72,10.19,2.44,15.07,12.93,15.07q71.85,0,143.7,0c1.17,0,2.34-.11,3.51-.17a7.51,7.51,0,0,0-2.48-3.13L173,460.21c-4.19-3.84-4.51-5.7-1.9-10.8,1-2,2-3.92,3.28-6.39-4.45,0-8.31-.26-12.12,0-10.44.83-12.39-6.14-8.27-13.09C158.55,422.29,162.1,414,166.25,405.65Zm-.05-153,.89-.06c0-1.48,0-3,0-4.45.09-15.24,7.13-26.62,19.76-34.62A32.5,32.5,0,0,1,206.63,208c17.18,1.1,33.91-.32,49.77-8,5.82-2.82,12.53-2.72,18.64-.75,12.13,3.91,24.41,7.65,36,12.87,15.34,6.91,23.53,19.34,23.56,36.58v9.5l1.1.09c.26-2.64.73-5.27.75-7.9.08-12.85-.41-25.72.16-38.54.55-12.32-8.16-24.69-19.79-27.51-4.83-1.17-6.26-4.39-4.95-9.15,2.54-9.16-1-14.59-10.46-14.63-29.56-.13-59.14-.49-88.68.31-26,.71-47.12,23.55-47.28,49.62q-.1,17.6,0,35.18A67.67,67.67,0,0,0,166.2,252.61Zm23.09,144.28c9.56,17.36,19,34.42,28.58,51.93l23.18-31.75a6.77,6.77,0,0,0-.86-.89c-11.57-7.76-23.13-15.55-34.76-23.21a5,5,0,0,0-3.78-.51C197.62,393.7,193.7,395.28,189.29,396.89Zm122.85.37c-8.2-4.78-16.2-7.2-23.77.88a17.77,17.77,0,0,1-3.09,2.08l-24.92,16.67c7.83,10.67,15.45,21,23.42,31.91ZM224.4,489.43,225,489l-44.87-81.61c-3.79,7.61-7.35,14.77-11.36,22.84,5.72,0,10.56-.09,15.39,0,6.69.16,9.29,4.61,6.27,10.62-2,3.95-4,7.86-6.11,11.84Zm108.53-59.18-11.38-22.83c-15.12,27.49-30,54.56-44.88,81.63l.56.42,40.15-36.75c-2.13-4.1-4.17-7.92-6.12-11.79-3-6-.46-10.49,6.21-10.66C322.31,430.15,327.15,430.25,332.93,430.25ZM250.82,508.7c2.82-5.11,5.31-9.53,7.67-14a4.91,4.91,0,0,0,.39-2.84c-1.56-9.94-3.11-19.88-4.85-29.78-1.54-8.71-3.79-17.46,4-24.63.15-.14.13-.46.24-.87l-7.41-9.9-7.49,10.2c1.24,1.78,2.19,3.4,3.38,4.83a11.8,11.8,0,0,1,2.6,10.37c-2.06,11.73-3.87,23.52-5.66,35.3-.38,2.5-1.11,5.4-.25,7.55C245.26,499.48,248,503.66,250.82,508.7Zm39.35-133.38c-26.17,20.95-52.36,20.82-79,.38.14,2.28.16,4.88,1.38,5.73,12.66,8.74,25.51,17.19,38.3,25.73,12.28-8.19,24.28-16.39,36.51-24.24C290.46,380.93,291,378.74,290.17,375.32Zm-54.31,73.36-1.07-.3c-3,4.06-6,8.1-8.93,12.2a2.41,2.41,0,0,0-.33,2c2,3.77,4.08,7.47,6.14,11.2C233.49,465.31,235.84,457.13,235.86,448.68Zm33.34,24.78.91.16c1.91-3.46,3.87-6.89,5.7-10.4a2.82,2.82,0,0,0,.11-2.38c-2.93-4.2-6-8.29-9-12.42l-1.4.47Z" transform="translate(-59.19 -147.38)"/></svg>