<svg id="Layer_1" data-name="Layer 1" xmlns="http://www.w3.org/2000/svg" viewBox="0 0 164.27 116.69"><path d="M330.6,170.47c33.91,0,61.36,10.22,84.54,31.55,2.06,1.89,2.91,4.08,2,6.73-1.36,3.9-6.07,4.85-9.41,2.16-5.24-4.23-10.34-8.7-16-12.36a99.71,99.71,0,0,0-46.85-15.94q-42.24-3.5-75.56,22.77c-2.2,1.74-4.24,3.68-6.36,5.5a5.75,5.75,0,1,1-7.77-8.48,114.12,114.12,0,0,1,58.39-29.72C320,171.5,326.59,171,330.6,170.47Z" transform="translate(-253.23 -170.47)"/><path d="M335.42,216.47a69.84,69.84,0,0,0-48.12,19.14,11.4,11.4,0,0,1-4.41,2.79,5.3,5.3,0,0,1-6.2-3.07,5.63,5.63,0,0,1,1.34-6.7A149.51,149.51,0,0,1,291,218.2a75.82,75.82,0,0,1,36.49-12.86c25.17-2.14,47,5.61,65.18,23.17a5.76,5.76,0,1,1-8.07,8.2c-9-8.8-19.54-15.05-31.81-18-5.65-1.34-11.48-1.87-17.23-2.77Z" transform="translate(-253.23 -170.47)"/><path d="M371.65,257.64a5.51,5.51,0,0,1-3.31,5.29A5.58,5.58,0,0,1,362,262a73.72,73.72,0,0,0-6.85-5.42,37.27,37.27,0,0,0-45.65,4.66c-1.63,1.56-3.41,2.63-5.75,2.17a5.47,5.47,0,0,1-4.45-3.94,5.63,5.63,0,0,1,1.51-5.92,47.45,47.45,0,0,1,23.63-12.95c17.23-3.67,32.28.68,45.09,12.71,1.12,1.06,1.7,2.71,2.53,4.08Z" transform="translate(-253.23 -170.47)"/><path d="M345,277.53a9.63,9.63,0,1,1-9.54-9.61A9.76,9.76,0,0,1,345,277.53Z" transform="translate(-253.23 -170.47)"/></svg>