<svg id="Layer_1" data-name="Layer 1" xmlns="http://www.w3.org/2000/svg" viewBox="0 0 408.75 308.64"><path d="M502,390.23c-.55,7.67-1.25,15.33-1.6,23-.77,16.81-2.82,33.38-9.69,48.94-9.25,21-25.62,33.26-48.17,35.66-21.65,2.31-43.49,3.1-65.27,4-19.67.85-39.37,1.47-59.05,1.35-34.32-.21-68.65-.88-103-1.75-17.54-.45-35.08-1.47-52.58-2.75-13.19-1-26-3.73-37.36-11.16-15.24-10-23.31-24.72-26.35-42a314.59,314.59,0,0,1-4.76-43.91c-.93-27.92-1.15-55.88-.83-83.81a529,529,0,0,1,3.17-52.95c1.75-15.62,6-30.87,16.23-43.46,10.07-12.33,23.12-20.31,39-21.92,19.95-2,40-3.56,60.06-3.92,45.36-.8,90.73-1.22,136.09-.89,28.19.21,56.37,1.82,84.53,3.29,17.71.92,33.82,6.33,46.75,19.34,9.56,9.63,14,21.67,17.16,34.45,3.89,15.88,3.88,32.15,4.87,48.32.16,2.62.53,5.23.81,7.84ZM290.19,479.35v-.07c4.78,0,9.57.12,14.36,0q58.62-1.74,117.26-3.62a138.07,138.07,0,0,0,20.2-2c16.55-3,25.31-14.09,29.71-29.67,4.73-16.73,4.69-33.92,5.46-51a1004.89,1004.89,0,0,0-.76-104.14c-.71-12.05-1.19-24.14-4.67-35.88-2.95-10-7.39-18.71-16.77-24.22a45.84,45.84,0,0,0-21.18-6.22c-28.3-1.46-56.59-3.11-84.9-3.86q-93.81-2.51-187.47,3.78c-20.22,1.33-32.55,11.95-38,31.5-4.61,16.35-4.63,33.13-5.39,49.81a958.83,958.83,0,0,0,.81,105.74,255.92,255.92,0,0,0,4.73,34.64c3.52,17.15,14.66,27.24,32,29.15,17.56,1.93,35.22,3.2,52.86,3.92C235.65,478.29,262.93,478.66,290.19,479.35Z" transform="translate(-93.26 -194.61)"/><path d="M245.63,344.56c0-15.82.47-31.67-.15-47.47-.51-13,12.64-23.11,26.33-15.49,29,16.12,58.16,31.94,87.29,47.82,6.24,3.4,10.09,8.46,10.07,15.53s-3.94,12.12-10.19,15.47c-29.24,15.68-58.5,31.31-87.64,47.17-13.4,7.29-26.33-3.06-25.86-15.55C246.08,376.24,245.63,360.39,245.63,344.56ZM269.72,381l67.18-36.14-67.18-36.75Z" transform="translate(-93.26 -194.61)"/></svg>